<?xml version="1.0" encoding="UTF-8" standalone="no"?>
<svg
   viewBox="0 0 512 512"
   version="1.1"
   id="svg1"
   sodipodi:docname="binoculars.svg"
   inkscape:version="1.4 (1:1.4+202410161351+e7c3feb100)"
   xmlns:inkscape="http://www.inkscape.org/namespaces/inkscape"
   xmlns:sodipodi="http://sodipodi.sourceforge.net/DTD/sodipodi-0.dtd"
   xmlns="http://www.w3.org/2000/svg"
   xmlns:svg="http://www.w3.org/2000/svg">
  <defs
     id="defs1" />
  <sodipodi:namedview
     id="namedview1"
     pagecolor="#ffffff"
     bordercolor="#666666"
     borderopacity="1.0"
     inkscape:showpageshadow="2"
     inkscape:pageopacity="0.0"
     inkscape:pagecheckerboard="0"
     inkscape:deskcolor="#d1d1d1"
     inkscape:zoom="3.6875"
     inkscape:cx="255.86441"
     inkscape:cy="256"
     inkscape:window-width="3783"
     inkscape:window-height="2126"
     inkscape:window-x="57"
     inkscape:window-y="1074"
     inkscape:window-maximized="1"
     inkscape:current-layer="svg1" />
  <!--! Font Awesome Free 6.6.0 by @fontawesome - https://fontawesome.com License - https://fontawesome.com/license/free (Icons: CC BY 4.0, Fonts: SIL OFL 1.1, Code: MIT License) Copyright 2024 Fonticons, Inc.-->
  <path
     d="M128 32h32c17.7 0 32 14.3 32 32v32H96V64c0-17.7 14.3-32 32-32m64 96v320c0 17.7-14.3 32-32 32H32c-17.7 0-32-14.3-32-32v-59.1c0-34.6 9.4-68.6 27.2-98.3C40.9 267.8 49.7 242.4 53 216l7.5-60c2-16 15.6-28 31.8-28h99.8zm227.8 0c16.1 0 29.8 12 31.8 28l7.4 60c3.3 26.4 12.1 51.8 25.8 74.6 17.8 29.7 27.2 63.7 27.2 98.3V448c0 17.7-14.3 32-32 32H352c-17.7 0-32-14.3-32-32V128zM320 64c0-17.7 14.3-32 32-32h32c17.7 0 32 14.3 32 32v32h-96zm-32 64v160h-64V128z"
     id="path1"
     style="fill:#0000ff;fill-opacity:1" />
</svg>
